Coordinates
version=1
nRows=12
nColumns=24
inDegrees=yes

Units are S.I. units (second, meters, Newtons, ...)
Angles are in degrees.

endheader
time	pelvis_tilt	pelvis_list	pelvis_rotation	pelvis_tx	pelvis_ty	pelvis_tz	hip_flexion_r	hip_adduction_r	hip_rotation_r	knee_angle_r	ankle_angle_r	subtalar_angle_r	mtp_angle_r	hip_flexion_l	hip_adduction_l	hip_rotation_l	knee_angle_l	ankle_angle_l	subtalar_angle_l	mtp_angle_l	lumbar_extension	lumbar_bending	lumbar_rotation
      4.28500000	    -18.41525425	     -2.31567901	     -2.83039050	     -1.37757979	     -0.00764657	     -0.24059070	      9.37732355	      9.51925678	     11.82564526	     -7.34043500	      4.11635883	     -8.98495858	      1.50245713	     46.40730583	      1.00787532	      4.30430783	    -49.86059937	     16.52351956	     10.81739518	    -68.51783601	     13.07372942	      0.56845052	      4.40823797
      4.29000000	    -18.39394556	     -2.19951092	     -3.12255092	     -1.37093743	     -0.00784568	     -0.24026662	      8.64499843	      9.37135021	     11.86205878	     -6.92246022	      4.14325845	     -8.57204649	      1.62378863	     46.57178027	      0.89427026	      4.15939361	    -48.05403099	     16.39755201	     10.82958152	    -68.38170696	     12.99234334	      0.55352144	      4.68632993
      4.29500000	    -18.45893970	     -2.10259607	     -3.36602653	     -1.36430653	     -0.00823730	     -0.23994114	      8.03965606	      9.25082172	     11.83003063	     -6.56585272	      4.16041861	     -8.22572681	      1.74106337	     46.79020357	      0.79843642	      4.15280489	    -46.18197690	     16.27061885	     10.95013850	    -68.25972684	     13.00034440	      0.53786174	      4.91237368
      4.30000000	    -18.42817590	     -1.99366178	     -3.65491704	     -1.35763305	     -0.00857019	     -0.23965602	      7.32233987	      9.09517534	     11.75860342	     -6.18661021	      4.22734960	     -7.67008616	      2.00367431	     46.86734358	      0.67406489	      4.04166110	    -44.26104912	     16.06079241	     10.93902422	    -68.01677868	     12.90599730	      0.53010633	      5.17036461
      4.30500000	    -18.40697909	     -1.91006515	     -3.90553809	     -1.35098921	     -0.00899513	     -0.23945467	      6.66010316	      8.96162496	     11.55881278	     -5.88181815	      4.29751737	     -7.07067986	      2.41714424	     46.91191802	      0.56541578	      4.05423981	    -42.27637582	     15.87110425	     11.00701321	    -67.60896314	     12.81092606	      0.54690785	      5.42828301
      4.31000000	    -18.44261981	     -1.80390776	     -4.16083977	     -1.34431768	     -0.00954038	     -0.23920429	      6.06305318	      8.80858754	     11.41116073	     -5.58352687	      4.35535999	     -6.52916543	      2.83046452	     46.98372965	      0.45136964	      4.04813102	    -40.24338914	     15.66892430	     11.11264096	    -67.21698960	     12.78475774	      0.53672120	      5.65485342
      4.31500000	    -18.51790020	     -1.68712825	     -4.39956584	     -1.33760192	     -0.01018583	     -0.23893205	      5.50266487	      8.64405938	     11.30022613	     -5.27841994	      4.40767216	     -6.03569751	      3.14314290	     47.06829586	      0.33350023	      4.02280970	    -38.17220493	     15.49700414	     11.27786679	    -66.96119355	     12.80839328	      0.50785761	      5.82316252
      4.32000000	    -18.48547596	     -1.60470165	     -4.63394240	     -1.33096176	     -0.01077303	     -0.23874561	      4.88711750	      8.50658267	     10.99517963	     -5.07243565	      4.50742327	     -5.35671553	      3.68725478	     46.98824396	      0.20906939	      4.11698222	    -36.04483158	     15.41578104	     11.48809531	    -66.53238488	     12.69245672	      0.51845893	      6.04389809
      4.32500000	    -18.57339101	     -1.47969697	     -4.86623583	     -1.32426978	     -0.01150914	     -0.23850782	      4.38121184	      8.32854085	     10.85923584	     -4.83098660	      4.56248529	     -4.83211241	      4.07105628	     47.01074067	      0.08764762	      4.15046393	    -33.87967772	     15.31322463	     11.75407341	    -66.27242782	     12.72189414	      0.48257749	      6.23521586
      4.33000000	    -18.63951328	     -1.35433014	     -5.07311511	     -1.31759678	     -0.01228195	     -0.23827439	      3.89914192	      8.15737741	     10.68827475	     -4.68404640	      4.65153190	     -4.35444271	      4.40137136	     46.97055272	     -0.02906146	      4.22338290	    -31.66919904	     15.32020044	     12.12409269	    -66.08961317	     12.72059628	      0.43924388	      6.38584124
      4.33500000	    -18.60208183	     -1.28990780	     -5.24543581	     -1.31097406	     -0.01298995	     -0.23819536	      3.32668188	      8.02205388	     10.24770435	     -4.54802311	      4.74684665	     -3.56967120	      5.13594972	     46.79325092	     -0.14696501	      4.45349606	    -29.44385794	     15.33453185	     12.47301104	    -65.71498697	     12.58598922	      0.45240166	      6.53051583
      4.34000000	    -18.78185217	     -1.15399021	     -5.46580868	     -1.30429950	     -0.01395196	     -0.23791556	      2.99099408	      7.85225998	     10.23110015	     -4.44290482	      4.77352389	     -3.25617951	      5.37629937	     46.82227253	     -0.29575337	      4.53451415	    -27.19737857	     15.36338189	     12.89979517	    -65.62810050	     12.70983603	      0.40330847	      6.71028293
